<?xml version="1.0" encoding="UTF-8"?>
<svg width="400pt" height="400pt" version="1.1" viewBox="0 0 400 400" xmlns="http://www.w3.org/2000/svg" xmlns:xlink="http://www.w3.org/1999/xlink">
 <g>
  <path d="m209.3 301c-11.211 0-21.961 4.4531-29.887 12.379-7.9258 7.9258-12.375 18.676-12.375 29.883 0 11.211 4.4492 21.961 12.375 29.887 7.9258 7.9258 18.676 12.375 29.887 12.375 11.207 0 21.957-4.4492 29.883-12.375 7.9258-7.9258 12.379-18.676 12.379-29.887 0-11.207-4.4531-21.957-12.379-29.883-7.9258-7.9258-18.676-12.379-29.883-12.379zm0 61.773c-5.1758 0-10.141-2.0547-13.797-5.7148-3.6602-3.6562-5.7148-8.6211-5.7148-13.797s2.0547-10.137 5.7148-13.797c3.6562-3.6602 8.6211-5.7148 13.797-5.7148s10.137 2.0547 13.797 5.7148 5.7148 8.6211 5.7148 13.797-2.0547 10.141-5.7148 13.797c-3.6602 3.6602-8.6211 5.7148-13.797 5.7148z"/>
  <path d="m481.25 301c-11.207 0-21.957 4.4531-29.883 12.379-7.9258 7.9258-12.379 18.676-12.379 29.883 0 11.211 4.4531 21.961 12.379 29.887 7.9258 7.9258 18.676 12.375 29.883 12.375s21.957-4.4492 29.883-12.375c7.9258-7.9258 12.379-18.676 12.379-29.887 0-11.207-4.4531-21.957-12.379-29.883-7.9258-7.9258-18.676-12.379-29.883-12.379zm0 61.773c-5.1758 0-10.137-2.0547-13.797-5.7148-3.6602-3.6562-5.7148-8.6211-5.7148-13.797s2.0547-10.137 5.7148-13.797 8.6211-5.7148 13.797-5.7148 10.137 2.0547 13.797 5.7148 5.7148 8.6211 5.7148 13.797-2.0547 10.141-5.7148 13.797c-3.6602 3.6602-8.6211 5.7148-13.797 5.7148z"/>
  <path d="m529.55 264.07 4.8125 8.4883 27.301 11.023-4.0273-10.672z"/>
  <path d="m131.25 263.55 1.9258-4.5508c0.25-0.52734 0.25-1.1367 0-1.6641-0.30469-0.52734-0.88281-0.83203-1.4883-0.78516h-11.898v8.75l10.148-0.875c0.55859-0.054687 1.0508-0.38281 1.3125-0.875z"/>
  <path d="m593.6 295.4-10.676-9.9766v-10.5 0.003906c0.015625-4.4648-1.332-8.8281-3.8672-12.504-2.5312-3.6758-6.1289-6.4883-10.309-8.0586l-53.023-18.812c-8.4219-3.0312-17.305-4.5703-26.25-4.5508h-16.977l-62.301-39.199c-17.926-11.375-38.707-17.441-59.938-17.5h-70.262c-20.547 0.007813-40.699 5.6328-58.273 16.273l-60.727 36.926-28.613 2.8008c-4.9453 0.50391-9.5781 2.6641-13.152 6.1211-3.5703 3.4609-5.8711 8.0234-6.5352 12.953 0.69531-0.66797 1.5859-1.0938 2.5391-1.2266h16.711c3.5391-0.039063 6.8477 1.7461 8.75 4.7266 1.8711 2.8711 2.168 6.4883 0.78906 9.625l-1.4883 4.375c-1.5508 3.5391-4.9023 5.9531-8.75 6.3008l-14.523 1.2266v-0.003906c-1.0039-0.007813-1.9688-0.37891-2.7148-1.0469v5.6016l-7.875 14.789v-0.003907c-0.56641 0.54297-0.96094 1.2422-1.1367 2.0117v22.574c-0.035156 4.5586 1.4141 9.0039 4.1289 12.668 2.7148 3.6602 6.5508 6.3398 10.922 7.6328l28.699 8.75h8.75c2.3672 0 4.2891-1.918 4.2891-4.2891 0-17.066 9.1055-32.84 23.887-41.371 14.781-8.5352 32.992-8.5352 47.773 0 14.781 8.5312 23.887 24.305 23.887 41.371 0 2.3711 1.9219 4.2891 4.2891 4.2891h167.12c2.3672 0 4.2891-1.918 4.2891-4.2891 0-17.066 9.1055-32.84 23.887-41.371 14.781-8.5352 32.992-8.5352 47.773 0 14.781 8.5312 23.887 24.305 23.887 41.371 0 2.3711 1.9219 4.2891 4.2891 4.2891h4.5508l40.426-9.8867c4.8516-1.0898 9.1914-3.7969 12.309-7.6758 3.1172-3.8789 4.8203-8.6992 4.8398-13.676v-17.5c0.03125-1.2305-0.48047-2.4141-1.3984-3.2383zm-267.49-43.312h20.738c2.4141 0 4.375 1.9609 4.375 4.375 0 2.418-1.9609 4.375-4.375 4.375h-20.738c-2.418 0-4.375-1.957-4.375-4.375 0-2.4141 1.957-4.375 4.375-4.375zm-83.211 6.8242h-23.625l-0.003906 0.003906c-2.4141 0-4.375-1.9609-4.375-4.375 0-2.418 1.9609-4.375 4.375-4.375h23.625c2.418 0 4.375 1.957 4.375 4.375 0 2.4141-1.957 4.375-4.375 4.375zm-26.863-19.426v0.003906c-1.5234-0.035156-2.9141-0.875-3.6523-2.2109-0.73828-1.332-0.71484-2.9531 0.0625-4.2656 0.78906-1.3125 18.727-30.539 32.812-38.062 10.938-5.9492 43.75-6.6484 62.125-6.6484 1.1523-0.023437 2.2656 0.41797 3.0898 1.2227 0.82422 0.80859 1.2852 1.9102 1.2852 3.0625v44.453c-0.019531 1.1758-0.48828 2.3047-1.3125 3.1484-0.82031 0.79297-1.9219 1.2305-3.0625 1.2266zm195.21 87.066h-135.62c-2.418 0-4.375-1.9609-4.375-4.375 0-2.418 1.957-4.375 4.375-4.375h135.62c2.418 0 4.375 1.957 4.375 4.375 0 2.4141-1.957 4.375-4.375 4.375zm39.812-80.852c-0.69531 1.5508-2.2383 2.5469-3.9375 2.5391l-83.648-5.6875-36.051-0.78906c-1.1289 0-2.2109-0.45312-3.0039-1.2617-0.78906-0.80469-1.2188-1.8945-1.1953-3.0234v-44.539c-0.019531-1.1875 0.45703-2.3281 1.3125-3.1484 0.80469-0.80469 1.9219-1.2227 3.0625-1.1406 11.637 0 22.75 1.0508 32.988 1.9258 43.75 3.9375 88.023 48.477 89.863 50.312h-0.003906c1.2969 1.2461 1.6836 3.1641 0.96484 4.8125zm116.29 43.75c-2.4492 2.3398-6.0273 3.0547-9.1875 1.8398l-27.039-10.766c-1.832-0.69922-3.3516-2.0352-4.2891-3.7617l-10.148-17.938c-1.0156-1.5977-0.83594-3.6758 0.4375-5.0742 1.1094-1.3789 2.9492-1.9336 4.6367-1.3984l38.238 12.336c2.5234 0.79688 4.5508 2.6953 5.5117 5.1641l3.9375 10.762c1.2031 3.1172 0.52344 6.6484-1.75 9.0977z"/>
 </g>
</svg>
