<?xml version="1.0" encoding="UTF-8"?>
<svg width="700pt" height="700pt" version="1.1" viewBox="0 0 700 700" xmlns="http://www.w3.org/2000/svg" xmlns:xlink="http://www.w3.org/1999/xlink">
 <g>
  <path d="m605.92 195.44-8.9609 34.16c-5.6016 4.4805-14.559 11.199-25.762 17.359-10.078 5.6016-19.602 10.078-28 12.879l10.078-38.641c11.762-3.3594 22.961-8.3984 34.719-15.121 6.7227-3.3594 12.883-7.2773 17.926-10.637m-56.562 27.438-10.078 38.641 10.078-38.641m-11.758 42.562-11.762 44.238c-19.039 6.1602-35.281 6.7188-47.039 5.6016-1.6797 0-3.3594-0.55859-5.6016-0.55859l11.762-44.801c2.2383 0.55859 3.9219 0.55859 6.1602 0.55859 3.3594 0 6.1602 0.55859 9.5195 0.55859 14 0 26.32-2.2383 36.961-5.5977m-40.883 2.2383c-1.6797 0-3.3594 0-4.4805-0.55859 1.6836 0.55859 3.3633 0.55859 4.4805 0.55859m-2.7969-40.879-10.641 39.762c-16.238-2.8008-31.359-8.9609-45.922-19.039l10.641-38.641c14.559 8.957 29.68 15.117 45.922 17.918m-49.281-20.723-10.078 38.641 10.078-38.641m-11.199 42.562-11.762 44.238c-14-10.078-27.441-24.078-39.762-40.879l11.762-43.68c12.32 16.801 25.762 30.238 39.762 40.32m-31.922-84.562-10.078 36.398c-12.32-17.359-25.762-31.922-39.199-43.68l10.078-38.078c11.762 11.199 23.52 24.641 34.719 40.32 1.6797 1.1211 3.3594 3.3594 4.4805 5.0391m-41.441-48.719-10.078 38.078 10.078-38.078m-11.199 42.562-11.762 44.238c-14-12.32-28.559-21.281-43.68-27.441l11.762-44.801c15.121 6.1602 29.121 15.684 43.68 28.004m-35.277-72.242-10.641 39.762c-10.641-3.9219-21.281-6.7188-32.48-7.8398-5.6016-0.55859-11.199-0.55859-16.238-0.55859l10.641-39.199c5.6016-0.55859 11.199 0 17.359 0.55859 10.637 0.55859 20.719 3.3594 31.359 7.2773m-52.641-7.8398-10.641 39.199zm-11.762 43.121-11.762 44.238c-20.719 1.1211-37.52 7.8398-49.84 12.879l11.762-43.68c11.762-5.0391 29.121-12.32 49.84-13.438m-62.719 61.598c0.55859 0 1.1211-0.55859 1.1211-0.55859-0.5625 0-0.5625 0.55859-1.1211 0.55859zm1.6797-0.55859c2.8008-1.1211 5.6016-2.2383 8.9609-3.9219-3.3594 1.1211-6.1602 2.8008-8.9609 3.9219m-14.559 48.719c11.762-5.6016 29.121-12.32 49.84-13.441l-11.762 44.238c-20.719 1.1211-37.52 7.2812-49.84 12.879zm-11.203 47.043c0.55859-0.55859 1.6797-0.55859 2.2383-1.1211-0.55859 0.55859-1.6758 0.55859-2.2383 1.1211m2.8008-1.1211c1.6797-0.55859 3.9219-1.6797 5.6016-2.2383-1.6797 0.55859-3.9219 1.6758-5.6016 2.2383m6.1602-2.8008c0.55859-0.55859 1.6797-0.55859 2.2383-1.1211-0.55859 0.5625-1.1172 1.1211-2.2383 1.1211m3.9219-1.1211c0.55859-0.55859 1.6797-0.55859 2.2383-1.1211-1.1211 0.5625-1.6797 1.1211-2.2383 1.1211m3.3594-1.1172c1.1211 0 1.6797-0.55859 2.8008-0.55859-1.1211-0.003907-2.2422-0.003907-2.8008 0.55859m3.3594-1.1211c1.1211-0.55859 2.2383-0.55859 3.3594-1.1211-1.1211 0.5625-2.2383 0.5625-3.3594 1.1211m3.3594-1.1211c1.1211-0.55859 2.8008-0.55859 3.9219-1.1211-1.6797 0.5625-2.8008 1.1211-3.9219 1.1211m4.4805-1.1211c1.1211 0 2.2383-0.55859 3.3594-0.55859-1.1211 0-2.2383 0.55859-3.3594 0.55859m3.9219-1.1172c1.1211 0 1.6797-0.55859 2.8008-0.55859-0.5625 0.55859-1.6836 0.55859-2.8008 0.55859m-33.043 11.199c0.55859 0 0.55859-0.55859 1.1211-0.55859-0.55859 0.55859-0.55859 0.55859-1.1211 0.55859zm37.52-11.762c1.1211 0 1.6797-0.55859 2.8008-0.55859-1.1172 0-1.6797 0.55859-2.8008 0.55859m3.9219-0.55859c1.1211 0 2.2383-0.55859 3.3594-0.55859-1.1211 0-2.2383 0-3.3594 0.55859m8.3984-1.1211c-1.6797 0-2.8008 0-4.4805 0.55859 1.6836-0.55859 3.3633-0.55859 4.4805-0.55859l-10.078 38.078zm-6.7188 39.199 10.641-39.199c5.6016 0 11.199 0 16.801 0.55859 10.641 1.1211 21.281 3.3594 31.922 7.8398l-10.641 39.762c-16.238-6.1602-31.359-8.3984-45.359-8.3984-1.125-0.5625-2.2422-0.5625-3.3633-0.5625m60.48-34.719c-7.8398-2.8008-16.238-5.0391-24.078-6.7188 7.8359 1.6797 16.238 3.3594 24.078 6.7188l11.762-44.801zm45.918 32.48c-14-12.32-28.559-21.281-43.68-28 15.121 6.7188 29.68 15.68 43.68 28l-10.641 39.199zm-7.8398 42 10.641-39.199c12.879 11.762 25.762 26.32 38.078 43.68 0 0.55859 0.55859 0.55859 0.55859 1.1211l-10.078 38.078c-12.879-18.48-26.316-32.48-39.199-43.68m50.961 0.55859 11.762-43.68c0-0.55859-0.55859-0.55859-0.55859-1.1211-12.32-17.359-25.199-31.922-38.078-43.68 12.879 11.762 25.762 26.32 38.078 43.68 0 0.55859 0.55859 0.55859 0.55859 1.1211l-11.762 43.68m1.1211 8.4023c8.3984 11.199 17.359 21.281 26.32 29.121-8.9609-8.4023-17.922-17.922-26.32-29.121m40.32 39.758c-3.9219-2.8008-8.3984-6.1602-12.32-9.5195 3.918 3.3594 7.8398 6.7227 12.32 9.5195l-10.641 39.762zm-7.8398 42 10.641-39.762c14.559 9.5195 29.68 16.238 45.922 19.039l-10.645 39.766c-15.68-2.8008-31.359-8.9609-45.918-19.043m57.68-24.078 11.762-44.801h-1.1211 1.1211l-11.762 44.801m2.8008 3.918c2.2383 0 3.9219 0.55859 6.1602 0.55859h0.55859-0.55859c-2.2422 0.003907-4.4805-0.55859-6.1602-0.55859m25.758-96.32c2.2383 0.55859 3.9219 0.55859 6.1602 0.55859h0.55859-0.55859c-2.2383 0.003906-4.4805 0.003906-6.1602-0.55859zm-1.6797 45.363c-1.6797 0-3.3594 0-5.0391-0.55859 1.6797 0.55859 3.3594 0.55859 5.0391 0.55859m-24.078 0h-0.55859c-0.55859 0-1.1211 0-1.1211-0.55859 0.55859 0.55859 1.1172 0.55859 1.6797 0.55859m-36.961-16.801s0.55859 0.55859 0.55859 0.55859l-0.55859-0.55859zm-30.242-90.16c9.5195 12.32 19.039 22.961 29.68 31.922-10.078-8.9609-20.156-19.602-29.68-31.922zm-28.559-96.32c12.879 11.762 25.762 26.32 38.078 43.68 0 0.55859 0.55859 0.55859 0.55859 1.1211l-11.762 43.68 11.762-43.68c0-0.55859-0.55859-0.55859-0.55859-1.1211-12.316-17.359-25.199-31.918-38.078-43.68m15.68 144.48c12.32 16.801 25.762 30.238 40.32 40.32l-11.762 44.238c-14-10.078-27.441-24.078-39.762-40.879zm-28.559-96.32c12.879 11.762 25.762 26.32 38.078 43.68 0 0.55859 0.55859 0.55859 0.55859 1.1211l-11.762 43.68c-12.32-17.359-25.762-31.922-39.199-43.68zm-31.922-23.52c10.078 5.6016 19.602 12.32 29.121 20.719l-11.762 44.238 11.762-44.238c-9.5195-7.8398-19.602-15.121-29.121-20.719m16.242 68.879-12.32 44.242c-14-12.32-28.559-21.281-43.68-27.441l11.762-44.801c15.676 6.7188 29.676 15.68 44.238 28m-33.043-80.641 11.762-44.801-11.762 44.801c-8.3984-3.3594-16.801-5.6016-25.199-6.7188 8.4023 1.6797 16.801 3.918 25.199 6.7188m-36.957-52.641c5.6016 0 11.199 0 16.801 0.55859 2.2383 0 4.4805 0.55859 7.2812 1.1211-2.2383-0.55859-4.4805-0.55859-7.2812-1.1211-5.6016-0.55859-11.203-0.55859-16.801-0.55859m-12.883 48.16c5.6016 0 11.199 0 16.801 0.55859 10.641 1.1211 21.281 3.3594 31.922 7.8398l-11.762 44.801c-10.641-3.9219-21.281-6.7188-32.48-7.8398-5.6016-0.55859-11.199-0.55859-16.238-0.55859zm-12.879 48.16c5.6016 0 11.199 0 16.801 0.55859 2.2383 0 4.4805 0.55859 6.7188 1.1211-2.2383-0.55859-4.4805-0.55859-6.7188-1.1211-5.6016-0.55859-11.199-1.1172-16.801-0.55859zm8.9609-48.16c-1.6797 0-2.8008 0-4.4805 0.55859 1.6797 0.003906 3.3594 0.003906 4.4805-0.55859l-11.762 44.238zm184.24 128.24c-3.3594-2.2383-6.7188-5.0391-10.078-7.8398 3.3594 2.8008 6.7188 5.0391 10.078 7.8398l-11.762 44.238zm15.68-45.922c0.55859 0 0.55859 0.55859 1.1211 0.55859-0.55859-0.55859-0.55859-0.55859-1.1211-0.55859m33.043 66.641-11.762 44.801c-16.238-2.8008-31.359-8.9609-45.922-19.039l11.762-44.238c14.562 9.5156 30.242 15.676 45.922 18.477m3.3594-49.84c-0.55859 0-1.1211 0-1.6797-0.55859 0.55859 0 1.6797 0.55859 2.2383 0.55859h-0.55859m9.5195 1.6797c-0.55859 0-1.1211 0-1.6797-0.55859 0.55859 0.55859 1.1211 0.55859 1.6797 0.55859l-11.762 44.801zm-28.559 142.24c-1.6797 0-3.3594-0.55859-5.6016-0.55859l11.762-44.801c2.2383 0.55859 3.9219 0.55859 6.1602 0.55859 3.3594 0 6.1602 0.55859 9.5195 0.55859 12.879 0 25.199-2.2383 36.398-5.6016l-11.762 44.238c-19.039 5.6055-34.719 6.1641-46.477 5.6055m45.359-1.6797c-0.55859 0-0.55859 0-1.1211 0.55859-8.3984 2.2383-16.801 3.9219-25.199 4.4805 9.5195-1.1211 18.48-2.8008 26.32-5.0391l-10.082 38.078zm-6.1602 36.398 10.078-38.078c12.32-3.9219 22.961-8.9609 31.359-14 8.9609-5.0391 16.801-10.641 22.398-15.121l-8.9609 33.602c-3.9219 3.3594-15.121 12.879-31.359 22.398-6.1562 4.4805-14.555 8.3984-23.516 11.199m54.32-99.68c1.1211-0.55859 2.2383-1.1211 2.8008-1.6797-0.5625 0.55859-1.6836 1.1172-2.8008 1.6797m-30.801 14c4.4805-1.6797 8.3984-2.8008 12.32-4.4805-4.4805 1.6797-8.4023 2.8008-12.32 4.4805zm8.3984-47.039c-0.55859 0-0.55859 0-1.1211 0.55859-6.7188 2.2383-14 3.3594-20.719 4.4805 7.8398-1.1211 15.121-2.8008 21.84-5.0391l-11.762 44.238zm17.359-49.281c8.9609-2.8008 17.359-6.7188 24.078-10.078-7.8359 3.918-16.234 7.8359-24.078 10.078m30.801-14c-0.55859 0-0.55859 0.55859-1.1211 0.55859 0.5625 0 1.1211-0.55859 1.1211-0.55859 1.1211-0.55859 2.2383-1.1211 3.3594-1.6797-1.1172 0.55859-2.2383 1.1211-3.3594 1.6797m-27.438 92.961c-10.078 5.6016-19.602 10.078-28.559 12.879l11.762-43.68c12.32-3.9219 22.961-8.9609 31.359-14 8.9609-5.0391 16.801-10.641 22.398-15.121l-11.199 42c-5.6016 5.0391-14.562 11.762-25.762 17.922m34.16-96.883c1.6797-1.1211 3.9219-2.2383 5.6016-3.3594-1.6836 1.1211-3.3633 2.2422-5.6016 3.3594m4.4766 31.363m8.9609-40.883c0.55859-0.55859 1.1211-1.1211 2.2383-1.6797-0.55859 1.1211-1.1172 1.6797-2.2383 1.6797m28.562-66.078c-2.8008-1.6797-6.1602-1.1211-8.3984 1.1211 0 0-12.879 12.32-32.48 23.52-17.922 10.078-45.922 21.84-76.719 19.039-35.281-3.3594-67.762-24.641-95.199-63.281-80.078-112-159.6-89.602-196-73.922l0.55859-2.2383c1.6797-5.6016-1.6797-11.199-7.2812-12.32-5.6016-1.6797-11.199 1.6797-12.32 7.2812l-117.6 439.04c-1.6797 5.6016 1.6797 11.199 7.2812 12.32 0.55859-0.55859 1.6797-0.55859 2.7969-0.55859 4.4805 0 8.3984-2.8008 9.5195-7.2812l48.16-179.76c14-6.7188 40.879-19.039 73.922-15.68 41.441 3.9219 80.078 31.359 115.36 80.641 30.238 42.559 65.52 65.52 105.28 68.879 3.3594 0.55859 6.7188 0.55859 10.641 0.55859 24.078 0 49.84-7.2812 74.48-21.281 21.281-11.762 34.16-24.641 34.719-25.199 1.1211-1.1211 1.6797-1.6797 1.6797-3.3594l64.398-239.68c0.5625-2.8008-0.55859-6.1602-2.7969-7.8398"/>
 </g>
</svg>
